# xmcd
#
# Track frame offsets:
#	150
#	21128
#	37936
#	59028
#	86694
#	101925
#	114926
#	132572
#	149152
#	172710
#	189591
#	208748
#	222565
#
# Disc length: 3193 seconds
#
# Revision: 1
# Processed by: cddbd v1.5.2PL0 Copyright (c) Steve Scherf et al.
# Submitted via: audiograbber 1.83.01
#
DISCID=c80c770d
DTITLE=Rob Currie - The Gentlest Country
DYEAR=2003
DGENRE=Country
TTITLE0=The Ships of St John
TTITLE1=My Love is a Nightingale
TTITLE2=River Rambles
TTITLE3=Queen of Troy
TTITLE4=Rape of Grand Pre
TTITLE5=Island with a Broken Heart
TTITLE6=I'd Never Be
TTITLE7=South Shore Lady
TTITLE8=Suite: MacDhomnuill - Geordie's Wedding - Lady Margaret
TTITLE9=Bound Down for Newfoundland
TTITLE10=Shores of Canada - The Ballad of Andrew Currie
TTITLE11=Miramichi Men
TTITLE12=Where Were You
EXTD=
EXTT0=
EXTT1=
EXTT2=
EXTT3=
EXTT4=
EXTT5=
EXTT6=
EXTT7=
EXTT8=
EXTT9=
EXTT10=
EXTT11=
EXTT12=
PLAYORDER=
